<mxfile host="65bd71144e">
    <diagram name="Page-1" id="C-l9v3zK4uQpY7m8XoWr">
        <mxGraphModel dx="1986" dy="530" grid="1" gridSize="10" guides="1" tooltips="1" connect="1" arrows="1" fold="1" page="1" pageScale="1" pageWidth="1100" pageHeight="850" math="0" shadow="0">
            <root>
                <mxCell id="0"/>
                <mxCell id="1" parent="0"/>
                <mxCell id="id-user-icon" value="User" style="shape=umlActor;verticalLabelPosition=bottom;verticalAlign=top;html=1;outlineConnect=0;fillColor=#e1d5e7;strokeColor=#9673a6;fontColor=#000000;" parent="1" vertex="1">
                    <mxGeometry x="-970" y="309.90999999999997" width="30" height="60" as="geometry"/>
                </mxCell>
                <mxCell id="arrow-0" value="0. Opens&lt;br&gt;Page" style="edgeStyle=none;html=1;rounded=0;strokeColor=#9673a6;fontColor=#9673a6;fontFamily=Helvetica;fontSize=11;endArrow=classic;dashed=1;" parent="1" source="id-user-icon" target="id-user-browser" edge="1">
                    <mxGeometry width="50" height="50" relative="1" as="geometry">
                        <mxPoint x="-930" y="339.90999999999997" as="sourcePoint"/>
                        <mxPoint x="-850" y="339.90999999999997" as="targetPoint"/>
                        <mxPoint as="offset"/>
                    </mxGeometry>
                </mxCell>
                <mxCell id="id-user-browser" value="&lt;font style=&quot;font-size: 13px;&quot;&gt;&lt;b&gt;User Browser&lt;/b&gt;&lt;/font&gt;&lt;br&gt;&lt;font style=&quot;font-size: 11px;&quot;&gt;(JS code executes here)&lt;/font&gt;" style="rounded=1;whiteSpace=wrap;html=1;fillColor=#e6e0f8;strokeColor=#b3a7d4;fontColor=#000000;fontFamily=Helvetica;align=center;verticalAlign=top;spacingTop=4;" parent="1" vertex="1">
                    <mxGeometry x="-850" y="284.90999999999997" width="180" height="110" as="geometry"/>
                </mxCell>
                <mxCell id="id-js-code" value="&lt;i&gt;Your JS Code (+ supabase-js)&lt;br&gt;Makes HTTPS requests&lt;/i&gt;" style="text;html=1;align=center;verticalAlign=middle;resizable=0;points=[];autosize=1;strokeColor=none;fillColor=none;fontColor=#000000;fontFamily=Helvetica;fontStyle=0;fontSize=11;" parent="id-user-browser" vertex="1">
                    <mxGeometry x="15" y="55" width="150" height="40" as="geometry"/>
                </mxCell>
                <mxCell id="id-github-pages" value="&lt;font style=&quot;font-size: 13px;&quot;&gt;&lt;b&gt;GitHub Pages&lt;/b&gt;&lt;/font&gt;&lt;br&gt;&lt;font style=&quot;font-size: 11px;&quot;&gt;Serves static files:&lt;br&gt;HTML, CSS, JS&lt;/font&gt;" style="rounded=1;whiteSpace=wrap;html=1;fillColor=#dae8fc;strokeColor=#6c8ebf;fontColor=#000000;fontFamily=Helvetica;align=center;" parent="1" vertex="1">
                    <mxGeometry x="-850" y="484.90999999999997" width="180" height="90" as="geometry"/>
                </mxCell>
                <mxCell id="id-supabase-api" value="&lt;font style=&quot;font-size: 13px;&quot;&gt;&lt;b&gt;Supabase API&lt;/b&gt;&lt;/font&gt;&lt;br&gt;Public Gateway" style="rounded=1;whiteSpace=wrap;html=1;fillColor=#d5e8d4;strokeColor=#82b366;fontColor=#000000;fontFamily=Helvetica;align=center;" parent="1" vertex="1">
                    <mxGeometry x="-340" y="229.91" width="160" height="80" as="geometry"/>
                </mxCell>
                <mxCell id="id-supabase-auth-rls" value="&lt;font style=&quot;font-size: 13px;&quot;&gt;&lt;b&gt;Supabase Auth &amp; RLS&lt;/b&gt;&lt;/font&gt;&lt;br&gt;Key &amp; Policy Check" style="rounded=1;whiteSpace=wrap;html=1;fillColor=#d5e8d4;strokeColor=#82b366;fontColor=#000000;fontFamily=Helvetica;align=center;" parent="1" vertex="1">
                    <mxGeometry x="-340" y="389.90999999999997" width="160" height="80" as="geometry"/>
                </mxCell>
                <mxCell id="id-supabase-db" value="&lt;font style=&quot;font-size: 13px;&quot;&gt;&lt;b&gt;Database&lt;/b&gt;&lt;/font&gt;&lt;br&gt;(Supabase PostgreSQL)" style="shape=cylinder3;whiteSpace=wrap;html=1;boundedLbl=1;backgroundOutline=1;size=15;fillColor=#d5e8d4;strokeColor=#82b366;fontColor=#000000;fontFamily=Helvetica;align=center;" parent="1" vertex="1">
                    <mxGeometry x="-310" y="539.91" width="100" height="120" as="geometry"/>
                </mxCell>
                <mxCell id="arrow-1" value="1. Request Page" style="edgeStyle=elbowEdgeStyle;elbow=vertical;rounded=0;html=1;strokeColor=#6c8ebf;fontColor=#6c8ebf;fontFamily=Helvetica;fontSize=11;" parent="1" source="id-user-browser" target="id-github-pages" edge="1">
                    <mxGeometry width="50" height="50" relative="1" as="geometry">
                        <mxPoint x="-765" y="394.90999999999997" as="sourcePoint"/>
                        <mxPoint x="-765" y="484.90999999999997" as="targetPoint"/>
                        <mxPoint x="-5" y="-15" as="offset"/>
                    </mxGeometry>
                </mxCell>
                <mxCell id="arrow-2" value="2. Serve HTML, CSS, JS" style="edgeStyle=elbowEdgeStyle;elbow=vertical;rounded=0;html=1;strokeColor=#6c8ebf;fontColor=#6c8ebf;fontFamily=Helvetica;fontSize=11;" parent="1" source="id-github-pages" target="id-user-browser" edge="1">
                    <mxGeometry width="50" height="50" relative="1" as="geometry">
                        <mxPoint x="-755" y="484.90999999999997" as="sourcePoint"/>
                        <mxPoint x="-755" y="394.90999999999997" as="targetPoint"/>
                        <mxPoint x="5" y="10" as="offset"/>
                    </mxGeometry>
                </mxCell>
                <mxCell id="arrow-3" value="3. JS sends HTTPS Request (with Anon Key)" style="edgeStyle=orthogonalEdgeStyle;shape=flexArrow;endArrow=classic;html=1;rounded=0;strokeColor=#f08705;fontColor=#f08705;fontFamily=Helvetica;fontSize=11;width=10;endSize=8;" parent="1" source="id-user-browser" target="id-supabase-api" edge="1">
                    <mxGeometry width="50" height="50" relative="1" as="geometry">
                        <mxPoint x="-670" y="294.90999999999997" as="sourcePoint"/>
                        <mxPoint x="-340" y="249.91" as="targetPoint"/>
                        <Array as="points">
                            <mxPoint x="-760" y="189.91"/>
                            <mxPoint x="-495" y="189.91"/>
                            <mxPoint x="-495" y="234.91"/>
                        </Array>
                        <mxPoint x="-40" y="-15" as="offset"/>
                    </mxGeometry>
                </mxCell>
                <mxCell id="arrow-8" value="8. HTTPS Response to Browser" style="edgeStyle=orthogonalEdgeStyle;shape=flexArrow;endArrow=classic;html=1;rounded=0;strokeColor=#f08705;fontColor=#f08705;fontFamily=Helvetica;fontSize=11;width=10;endSize=8;" parent="1" source="id-supabase-api" target="id-user-browser" edge="1">
                    <mxGeometry width="50" height="50" relative="1" as="geometry">
                        <mxPoint x="-340" y="289.90999999999997" as="sourcePoint"/>
                        <mxPoint x="-670" y="314.90999999999997" as="targetPoint"/>
                        <Array as="points">
                            <mxPoint x="-430" y="270"/>
                            <mxPoint x="-430" y="360"/>
                            <mxPoint x="-620" y="360"/>
                            <mxPoint x="-620" y="305"/>
                        </Array>
                        <mxPoint x="-40" y="15" as="offset"/>
                    </mxGeometry>
                </mxCell>
                <mxCell id="arrow-4" value="4. Forward for Check" style="edgeStyle=elbowEdgeStyle;elbow=vertical;rounded=0;html=1;strokeColor=#a2cf96;fontColor=#a2cf96;fontFamily=Helvetica;fontSize=11;" parent="1" source="id-supabase-api" target="id-supabase-auth-rls" edge="1">
                    <mxGeometry width="50" height="50" relative="1" as="geometry">
                        <mxPoint x="-265" y="309.90999999999997" as="sourcePoint"/>
                        <mxPoint x="-265" y="349.90999999999997" as="targetPoint"/>
                        <mxPoint x="-10" y="-15" as="offset"/>
                    </mxGeometry>
                </mxCell>
                <mxCell id="arrow-7" value="7. Return Result" style="edgeStyle=elbowEdgeStyle;elbow=vertical;rounded=0;html=1;strokeColor=#a2cf96;fontColor=#a2cf96;fontFamily=Helvetica;fontSize=11;" parent="1" source="id-supabase-auth-rls" target="id-supabase-api" edge="1">
                    <mxGeometry width="50" height="50" relative="1" as="geometry">
                        <mxPoint x="-255" y="349.90999999999997" as="sourcePoint"/>
                        <mxPoint x="-255" y="309.90999999999997" as="targetPoint"/>
                        <mxPoint x="10" y="10" as="offset"/>
                    </mxGeometry>
                </mxCell>
                <mxCell id="arrow-5" value="5. DB Query" style="edgeStyle=elbowEdgeStyle;elbow=vertical;rounded=0;html=1;strokeColor=#82b366;fontColor=#82b366;fontFamily=Helvetica;fontSize=11;" parent="1" source="id-supabase-auth-rls" target="id-supabase-db" edge="1">
                    <mxGeometry width="50" height="50" relative="1" as="geometry">
                        <mxPoint x="-265" y="429.90999999999997" as="sourcePoint"/>
                        <mxPoint x="-265" y="469.90999999999997" as="targetPoint"/>
                        <mxPoint x="-10" y="-15" as="offset"/>
                    </mxGeometry>
                </mxCell>
                <mxCell id="arrow-6" value="6. DB Response" style="edgeStyle=elbowEdgeStyle;elbow=vertical;rounded=0;html=1;strokeColor=#82b366;fontColor=#82b366;fontFamily=Helvetica;fontSize=11;" parent="1" source="id-supabase-db" target="id-supabase-auth-rls" edge="1">
                    <mxGeometry width="50" height="50" relative="1" as="geometry">
                        <mxPoint x="-255" y="469.90999999999997" as="sourcePoint"/>
                        <mxPoint x="-255" y="429.90999999999997" as="targetPoint"/>
                        <mxPoint x="10" y="10" as="offset"/>
                    </mxGeometry>
                </mxCell>
            </root>
        </mxGraphModel>
    </diagram>
</mxfile>